<svg width="900" height="900" viewBox="0 0 900 900" fill="none" xmlns="http://www.w3.org/2000/svg">
<g filter="url(#shadow)">
<rect x="210" y="210" width="480" height="480" rx="72" fill="url(#body)" stroke="url(#stroke)" stroke-width="3"/>
<rect x="290" y="290" width="320" height="320" rx="46" fill="#050B18" stroke="#2F80FF" stroke-opacity=".35"/>
<path d="M358 450H542" stroke="#5DAEFF" stroke-width="14" stroke-linecap="round"/>
<path d="M450 358V542" stroke="#5DAEFF" stroke-width="14" stroke-linecap="round"/>
<path d="M330 230V150M390 230V120M450 230V150M510 230V120M570 230V150" stroke="#2F80FF" stroke-width="12" stroke-linecap="round" opacity=".7"/>
<path d="M330 670V750M390 670V780M450 670V750M510 670V780M570 670V750" stroke="#2F80FF" stroke-width="12" stroke-linecap="round" opacity=".7"/>
<path d="M230 330H150M230 390H120M230 450H150M230 510H120M230 570H150" stroke="#2F80FF" stroke-width="12" stroke-linecap="round" opacity=".7"/>
<path d="M670 330H750M670 390H780M670 450H750M670 510H780M670 570H750" stroke="#2F80FF" stroke-width="12" stroke-linecap="round" opacity=".7"/>
</g>
<defs>
<filter id="shadow" x="20" y="20" width="860" height="860" filterUnits="userSpaceOnUse"><feGaussianBlur stdDeviation="25" result="b"/><feColorMatrix in="b" type="matrix" values="0 0 0 0 0.18 0 0 0 0 0.5 0 0 0 0 1 0 0 0 .55 0"/><feBlend in="SourceGraphic"/></filter>
<linearGradient id="body" x1="210" y1="210" x2="690" y2="690"><stop stop-color="#10254B"/><stop offset=".45" stop-color="#071326"/><stop offset="1" stop-color="#020611"/></linearGradient>
<linearGradient id="stroke" x1="210" y1="210" x2="690" y2="690"><stop stop-color="#38BDF8"/><stop offset=".5" stop-color="#2F80FF"/><stop offset="1" stop-color="#1D4ED8"/></linearGradient>
</defs>
</svg>