<svg width="1800" height="1000" viewBox="0 0 1800 1000" fill="none" xmlns="http://www.w3.org/2000/svg"><rect width="1800" height="1000" fill="#02040A"/><circle cx="1210" cy="380" r="390" fill="url(#p)" opacity=".9"/><path d="M0 760C430 520 755 574 1120 408C1380 290 1580 160 1800 90V1000H0V760Z" fill="url(#a)" opacity=".5"/><path d="M0 275C230 430 437 454 690 376C998 281 1160 181 1800 226" stroke="#2F80FF" stroke-opacity=".22" stroke-width="3"/><g opacity=".45"><circle cx="254" cy="164" r="2" fill="#9BD0FF"/><circle cx="447" cy="98" r="1.8" fill="#9BD0FF"/><circle cx="790" cy="194" r="1.7" fill="#9BD0FF"/><circle cx="1350" cy="122" r="2" fill="#9BD0FF"/><circle cx="1555" cy="310" r="1.6" fill="#9BD0FF"/><circle cx="1014" cy="746" r="1.8" fill="#9BD0FF"/></g><defs><radialGradient id="p" cx="0" cy="0" r="1" gradientUnits="userSpaceOnUse" gradientTransform="translate(1210 380) rotate(90) scale(390)"><stop stop-color="#5DADEF" stop-opacity=".75"/><stop offset=".48" stop-color="#2F80FF" stop-opacity=".28"/><stop offset="1" stop-color="#02040A" stop-opacity="0"/></radialGradient><linearGradient id="a" x1="900" y1="90" x2="900" y2="1000" gradientUnits="userSpaceOnUse"><stop stop-color="#2F80FF"/><stop offset="1" stop-color="#02040A"/></linearGradient></defs></svg>